<svg width="17" height="17" viewBox="0 0 17 17" fill="none" xmlns="http://www.w3.org/2000/svg">
<circle cx="8.415" cy="8.415" r="8.415" fill="#517DA3"/>
<path d="M8.47895 13.14C7.65761 13.14 6.92961 12.9487 6.29495 12.566C5.66961 12.174 5.24495 11.6373 5.02095 10.956L6.14095 10.382C6.30895 10.8953 6.57495 11.3107 6.93895 11.628C7.31228 11.936 7.86295 12.09 8.59095 12.09C9.19761 12.09 9.66428 11.9313 9.99095 11.614C10.3269 11.2873 10.4949 10.872 10.4949 10.368C10.4949 9.864 10.3503 9.49067 10.0609 9.248C9.78095 8.996 9.30961 8.87 8.64695 8.87C8.44161 8.87 8.20361 8.884 7.93295 8.912V7.792C8.01695 7.80133 8.09628 7.806 8.17095 7.806C8.25495 7.806 8.32961 7.806 8.39495 7.806C9.07628 7.806 9.56161 7.67533 9.85095 7.414C10.1403 7.14333 10.2849 6.72333 10.2849 6.154C10.2849 5.66867 10.1356 5.3 9.83695 5.048C9.53828 4.796 9.11361 4.67 8.56295 4.67C7.97495 4.67 7.52695 4.80067 7.21895 5.062C6.91095 5.314 6.66828 5.65933 6.49095 6.098L5.42695 5.594C5.65095 5.01533 6.03828 4.53933 6.58895 4.166C7.14895 3.79267 7.81628 3.606 8.59095 3.606C9.23495 3.606 9.76695 3.718 10.1869 3.942C10.6069 4.15667 10.9196 4.446 11.1249 4.81C11.3396 5.174 11.4469 5.57533 11.4469 6.014C11.4469 6.67667 11.2743 7.20867 10.9289 7.61C10.5836 8.002 10.1776 8.23533 9.71095 8.31V8.338C10.1216 8.34733 10.4716 8.45 10.7609 8.646C11.0503 8.83267 11.2696 9.08 11.4189 9.388C11.5776 9.68667 11.6569 10.0087 11.6569 10.354C11.6569 10.8953 11.5216 11.376 11.2509 11.796C10.9896 12.216 10.6209 12.5473 10.1449 12.79C9.66895 13.0233 9.11361 13.14 8.47895 13.14Z" fill="white"/>
</svg>
